<svg id="svg" version="1.1" xmlns="http://www.w3.org/2000/svg" xmlns:xlink="http://www.w3.org/1999/xlink" width="400" height="298.2456140350877" viewBox="0, 0, 400,298.2456140350877"><g id="svgg"><path id="path0" d="M109.321 31.912 C 107.189 32.044,104.975 32.300,104.402 32.482 C 103.829 32.663,102.723 32.811,101.944 32.811 C 101.120 32.811,99.000 33.299,96.871 33.978 C 94.643 34.689,92.073 35.272,90.294 35.470 C 88.097 35.715,86.495 36.130,83.826 37.145 C 81.875 37.888,79.666 38.680,78.917 38.905 C 78.168 39.130,76.850 39.774,75.989 40.336 C 74.290 41.444,73.515 41.774,70.965 42.480 C 70.049 42.734,68.773 43.366,68.132 43.884 C 67.490 44.402,66.125 45.212,65.097 45.684 C 64.070 46.155,62.634 46.996,61.905 47.553 C 61.176 48.109,59.725 48.968,58.680 49.461 C 57.635 49.955,56.387 50.687,55.907 51.088 C 55.427 51.489,54.604 52.038,54.078 52.307 C 53.553 52.577,52.728 53.367,52.246 54.065 C 51.554 55.064,50.981 55.480,49.537 56.031 C 47.846 56.677,47.115 57.321,39.967 64.455 L 32.229 72.180 31.926 74.047 C 31.527 76.501,31.519 264.417,31.917 267.481 C 33.297 278.105,43.842 280.393,58.315 273.208 C 61.143 271.804,68.197 266.361,71.981 262.663 C 73.592 261.089,75.337 259.586,75.859 259.323 C 76.381 259.060,77.211 258.465,77.703 258.001 C 78.195 257.537,79.605 256.796,80.835 256.353 C 82.066 255.911,83.598 255.099,84.239 254.550 C 84.881 254.000,85.888 253.468,86.477 253.367 C 90.066 252.749,92.906 251.984,94.628 251.170 C 101.254 248.040,134.396 247.903,142.084 250.975 C 143.095 251.379,145.198 251.928,146.756 252.195 C 151.312 252.976,153.061 253.523,154.880 254.736 C 155.820 255.363,157.498 256.170,158.608 256.528 C 159.718 256.886,161.395 257.642,162.333 258.208 C 163.272 258.773,165.037 259.690,166.255 260.245 C 167.473 260.800,168.553 261.390,168.655 261.555 C 168.757 261.721,170.031 262.537,171.485 263.369 C 172.940 264.202,174.313 265.105,174.537 265.376 C 174.761 265.647,175.836 266.441,176.926 267.140 C 178.017 267.840,178.999 268.558,179.109 268.736 C 179.219 268.914,180.072 269.542,181.004 270.132 C 181.937 270.721,183.102 271.580,183.594 272.040 C 184.087 272.501,185.429 273.383,186.577 274.002 C 187.726 274.621,189.104 275.503,189.640 275.963 C 190.653 276.833,191.037 276.965,193.310 277.224 C 195.789 277.506,202.484 274.692,205.226 272.215 C 205.867 271.636,206.967 270.801,207.670 270.359 C 208.373 269.918,209.485 269.125,210.142 268.596 C 210.798 268.068,211.805 267.404,212.379 267.121 C 212.953 266.837,213.960 266.075,214.616 265.428 C 215.334 264.719,216.746 263.845,218.162 263.234 C 219.456 262.676,220.799 261.959,221.145 261.641 C 221.491 261.323,222.738 260.582,223.915 259.995 C 225.092 259.407,226.142 258.786,226.248 258.615 C 226.545 258.134,229.008 256.978,231.320 256.234 C 232.468 255.865,234.213 255.121,235.198 254.583 C 236.182 254.044,238.262 253.304,239.821 252.938 C 241.380 252.573,243.987 251.888,245.615 251.416 C 247.243 250.945,248.988 250.558,249.493 250.556 C 249.997 250.554,251.148 250.349,252.051 250.100 C 253.611 249.670,258.254 249.313,267.860 248.885 C 278.774 248.399,292.543 249.400,295.199 250.873 C 296.044 251.341,297.856 252.007,299.225 252.352 C 300.595 252.697,302.206 253.108,302.806 253.265 C 303.406 253.422,304.600 254.033,305.458 254.624 C 306.316 255.214,307.839 255.965,308.841 256.292 C 310.160 256.721,311.006 257.242,311.902 258.174 C 312.583 258.882,313.544 259.671,314.038 259.926 C 314.531 260.181,315.316 260.849,315.782 261.409 C 316.248 261.969,317.356 262.854,318.245 263.376 C 319.133 263.897,320.210 264.683,320.638 265.122 C 321.855 266.373,326.313 269.963,327.494 270.644 C 328.081 270.982,329.135 271.756,329.836 272.363 C 330.537 272.970,331.477 273.555,331.924 273.664 C 332.371 273.773,334.102 274.518,335.770 275.321 C 340.108 277.408,348.051 278.076,351.609 276.652 C 353.011 276.091,356.515 272.078,357.296 270.139 C 357.756 268.995,357.793 261.729,357.793 171.637 L 357.793 74.370 356.722 72.756 C 356.133 71.868,355.410 70.403,355.116 69.500 C 354.749 68.373,354.188 67.486,353.325 66.667 C 352.634 66.010,351.700 64.887,351.251 64.171 C 349.416 61.247,341.483 53.390,339.180 52.215 C 338.515 51.876,337.674 51.196,337.311 50.705 C 336.947 50.214,336.057 49.525,335.332 49.174 C 334.607 48.823,333.396 48.064,332.642 47.489 C 331.888 46.913,330.270 45.986,329.047 45.429 C 327.823 44.871,326.448 44.100,325.991 43.716 C 325.534 43.331,324.181 42.642,322.983 42.185 C 321.786 41.727,320.029 40.850,319.079 40.236 C 317.793 39.405,316.518 38.924,314.094 38.356 C 312.303 37.936,310.060 37.187,309.110 36.692 C 307.719 35.967,306.556 35.677,303.146 35.206 C 300.479 34.837,298.270 34.353,297.181 33.896 C 294.192 32.645,293.263 32.510,285.011 32.134 C 266.361 31.285,253.997 31.863,248.024 33.864 C 245.320 34.770,243.025 35.311,240.441 35.650 C 237.613 36.020,236.333 36.339,235.035 36.994 C 234.100 37.466,231.941 38.204,230.239 38.633 C 228.537 39.063,226.573 39.747,225.875 40.153 C 225.177 40.559,223.309 41.361,221.724 41.935 C 220.139 42.509,218.410 43.358,217.882 43.821 C 217.354 44.285,215.940 45.040,214.740 45.498 C 213.476 45.981,212.049 46.797,211.350 47.437 C 210.685 48.046,209.569 48.833,208.868 49.187 C 208.168 49.542,207.240 50.230,206.807 50.716 C 206.373 51.203,205.296 52.009,204.412 52.507 C 203.529 53.006,202.029 54.114,201.080 54.969 C 194.781 60.646,194.665 60.663,190.321 56.555 C 189.082 55.383,187.397 53.898,186.577 53.254 C 185.757 52.611,184.549 51.580,183.893 50.963 C 183.236 50.346,181.827 49.445,180.761 48.961 C 179.694 48.478,178.305 47.670,177.674 47.168 C 177.043 46.665,175.566 45.776,174.393 45.193 C 173.220 44.610,171.816 43.809,171.274 43.413 C 170.732 43.017,169.443 42.411,168.408 42.067 C 167.374 41.723,165.871 41.023,165.068 40.513 C 162.970 39.177,162.117 38.872,158.965 38.330 C 157.063 38.002,155.633 37.554,154.548 36.945 C 152.678 35.895,150.373 35.375,145.414 34.884 C 143.067 34.652,141.244 34.293,140.121 33.841 C 135.963 32.170,120.661 31.211,109.321 31.912 M125.429 48.326 C 127.069 48.473,130.694 48.682,133.482 48.791 C 138.882 49.002,143.496 49.883,146.647 51.305 C 147.445 51.665,149.413 52.148,151.020 52.379 C 153.894 52.791,155.558 53.412,157.345 54.740 C 157.837 55.106,159.339 55.766,160.682 56.207 C 162.036 56.652,163.726 57.469,164.476 58.041 C 165.220 58.609,166.470 59.349,167.254 59.685 C 168.038 60.021,169.351 60.808,170.172 61.433 C 170.992 62.058,172.127 62.804,172.694 63.092 C 173.261 63.379,174.496 64.368,175.439 65.289 C 178.018 67.812,180.209 69.669,181.208 70.181 C 181.700 70.433,183.726 72.045,185.709 73.763 C 189.825 77.326,189.788 77.303,192.735 78.235 C 196.170 79.321,200.689 78.102,203.069 75.447 C 203.678 74.768,204.579 74.007,205.071 73.756 C 205.931 73.317,207.046 72.402,210.589 69.226 C 213.365 66.738,214.614 65.502,215.071 64.790 C 215.342 64.369,216.314 63.817,217.599 63.355 C 218.843 62.907,220.109 62.196,220.731 61.595 C 221.305 61.041,222.379 60.328,223.117 60.011 C 223.855 59.694,224.932 58.903,225.510 58.254 C 226.474 57.173,226.831 57.008,229.803 56.281 C 231.767 55.800,233.410 55.210,233.972 54.783 C 236.010 53.234,239.175 52.104,242.491 51.741 C 243.549 51.626,245.011 51.275,245.739 50.963 C 248.290 49.870,254.147 48.947,261.672 48.453 C 274.365 47.619,274.644 47.614,279.344 48.123 C 281.805 48.390,286.033 48.755,288.740 48.935 C 294.302 49.305,297.393 49.858,299.761 50.904 C 300.655 51.300,302.736 51.962,304.385 52.376 C 306.402 52.882,307.896 53.466,308.951 54.161 C 309.891 54.779,311.326 55.373,312.531 55.642 C 315.135 56.223,318.215 57.506,318.561 58.153 C 318.711 58.433,319.680 59.105,320.714 59.648 C 322.642 60.659,324.583 62.025,327.575 64.476 C 328.509 65.242,329.986 66.294,330.856 66.814 C 331.726 67.335,332.800 68.264,333.242 68.879 C 333.685 69.494,334.520 70.322,335.099 70.718 C 335.679 71.115,336.505 72.087,336.936 72.878 C 337.367 73.670,338.579 75.346,339.628 76.603 L 341.536 78.889 341.536 166.496 C 341.536 244.821,341.487 254.314,341.071 256.109 C 340.180 259.951,339.438 260.669,336.962 260.089 C 334.757 259.571,334.391 259.316,333.739 257.842 C 333.006 256.185,326.963 249.989,325.221 249.108 C 324.532 248.760,323.525 247.923,322.984 247.248 C 322.442 246.573,321.394 245.692,320.656 245.290 C 319.918 244.888,318.681 244.110,317.907 243.561 C 317.133 243.013,315.591 242.270,314.480 241.911 C 313.369 241.552,311.854 240.824,311.114 240.292 C 309.532 239.156,308.668 238.803,306.006 238.204 C 304.920 237.960,303.037 237.236,301.821 236.596 C 299.963 235.617,299.041 235.349,296.040 234.913 C 294.075 234.628,291.059 233.993,289.336 233.503 C 284.828 232.219,271.835 231.701,263.381 232.468 C 260.349 232.743,256.978 232.967,255.892 232.964 C 254.581 232.962,253.477 233.154,252.611 233.537 C 251.818 233.887,249.372 234.356,246.383 234.731 C 238.926 235.665,238.129 235.836,235.966 236.955 C 234.865 237.525,232.898 238.263,231.594 238.596 C 228.156 239.474,226.756 240.016,225.755 240.859 C 225.266 241.270,224.104 241.817,223.172 242.075 C 220.648 242.774,219.783 243.127,218.776 243.866 C 218.275 244.234,216.953 244.948,215.839 245.453 C 214.725 245.958,213.328 246.797,212.736 247.318 C 212.143 247.838,210.713 248.696,209.558 249.224 C 208.402 249.753,207.189 250.484,206.862 250.849 C 206.535 251.214,205.394 252.025,204.327 252.650 C 203.260 253.276,201.984 254.214,201.491 254.734 C 200.999 255.255,199.925 256.166,199.105 256.758 C 198.285 257.351,197.173 258.212,196.634 258.672 C 195.255 259.848,194.420 259.757,193.231 258.299 C 192.688 257.634,191.506 256.709,190.604 256.244 C 189.702 255.778,187.957 254.572,186.726 253.562 C 182.574 250.156,182.199 249.883,180.668 249.145 C 179.828 248.740,178.614 247.957,177.971 247.406 C 177.284 246.819,175.863 246.091,174.530 245.646 C 173.275 245.226,171.673 244.420,170.948 243.843 C 169.824 242.950,166.521 241.611,165.442 241.611 C 165.254 241.611,164.027 241.076,162.714 240.422 C 161.161 239.648,159.288 239.021,157.347 238.624 C 155.518 238.250,153.581 237.616,152.335 236.983 C 149.474 235.530,147.228 235.019,142.431 234.730 C 139.221 234.537,137.496 234.265,134.974 233.553 C 130.610 232.322,115.713 231.583,110.216 232.325 C 108.904 232.502,106.215 232.783,104.240 232.948 C 102.187 233.120,99.187 233.626,97.230 234.130 C 95.350 234.616,93.139 235.095,92.319 235.195 C 86.924 235.855,86.122 236.077,84.625 237.322 C 84.166 237.703,83.227 238.169,82.537 238.357 C 79.466 239.194,78.418 239.612,77.433 240.395 C 76.390 241.224,76.117 241.354,73.241 242.397 C 72.427 242.691,71.114 243.508,70.323 244.211 C 69.531 244.913,68.684 245.488,68.440 245.488 C 68.196 245.488,67.258 246.227,66.355 247.129 C 65.453 248.031,64.582 248.770,64.419 248.770 C 63.915 248.770,56.359 256.611,55.776 257.738 C 55.074 259.096,54.781 259.316,52.841 259.950 C 50.353 260.762,49.285 259.928,48.065 256.222 L 47.425 254.279 47.512 168.079 C 47.597 83.576,47.610 81.848,48.178 80.288 C 48.871 78.385,50.949 75.719,52.799 74.359 C 54.244 73.295,55.283 72.378,56.227 71.330 C 57.791 69.593,60.917 66.797,61.802 66.343 C 62.345 66.065,63.192 65.506,63.684 65.101 C 64.938 64.069,68.983 61.639,71.290 60.533 C 72.356 60.021,73.766 59.084,74.422 58.449 C 75.678 57.235,76.998 56.656,80.215 55.910 C 81.374 55.641,82.777 55.040,83.664 54.433 C 85.331 53.291,88.868 52.040,91.312 51.727 C 92.194 51.614,93.430 51.263,94.058 50.947 C 95.693 50.126,99.464 49.217,101.241 49.216 C 102.076 49.215,104.034 49.003,105.593 48.744 C 111.269 47.801,117.989 47.660,125.429 48.326 M190.831 94.876 C 189.656 95.561,189.672 94.705,189.667 156.631 L 189.661 216.885 190.356 218.282 C 191.179 219.934,191.525 220.064,195.236 220.104 C 200.708 220.165,200.149 227.435,200.149 156.224 L 200.149 96.300 199.277 95.428 C 198.346 94.497,192.175 94.094,190.831 94.876 " stroke="none" fill="#111111" fill-rule="evenodd"></path></g></svg>