{
    "asset" : {
        "generator" : "Khronos glTF Blender I/O v1.7.33",
        "version" : "2.0"
    },
    "scene" : 0,
    "scenes" : [
        {
            "name" : "Scene",
            "nodes" : [
                0
            ]
        }
    ],
    "nodes" : [
        {
            "mesh" : 0,
            "name" : "Buch",
            "rotation" : [
                0.7071068286895752,
                0,
                0,
                0.7071068286895752
            ]
        }
    ],
    "materials" : [
        {
            "doubleSided" : true,
            "name" : "bookcover",
            "pbrMetallicRoughness" : {
                "metallicFactor" : 0
            }
        },
        {
            "doubleSided" : true,
            "name" : "book side2",
            "pbrMetallicRoughness" : {
                "metallicFactor" : 0,
                "roughnessFactor" : 0.5
            }
        },
        {
            "doubleSided" : true,
            "name" : "gold",
            "pbrMetallicRoughness" : {
                "baseColorFactor" : [
                    0.43537843227386475,
                    0.31432560086250305,
                    0.009998505935072899,
                    1
                ],
                "roughnessFactor" : 0.15454545617103577
            }
        }
    ],
    "meshes" : [
        {
            "name" : "W\u00fcrfel",
            "primitives" : [
                {
                    "attributes" : {
                        "POSITION" : 0,
                        "NORMAL" : 1,
                        "TEXCOORD_0" : 2
                    },
                    "indices" : 3,
                    "material" : 0
                },
                {
                    "attributes" : {
                        "POSITION" : 4,
                        "NORMAL" : 5,
                        "TEXCOORD_0" : 6
                    },
                    "indices" : 7,
                    "material" : 1
                },
                {
                    "attributes" : {
                        "POSITION" : 8,
                        "NORMAL" : 9,
                        "TEXCOORD_0" : 10
                    },
                    "indices" : 11,
                    "material" : 2
                }
            ]
        }
    ],
    "accessors" : [
        {
            "bufferView" : 0,
            "componentType" : 5126,
            "count" : 756,
            "max" : [
                0.32111018896102905,
                0.07551255822181702,
                0.43083080649375916
            ],
            "min" : [
                -0.330539733171463,
                -0.07551252841949463,
                -0.43084052205085754
            ],
            "type" : "VEC3"
        },
        {
            "bufferView" : 1,
            "componentType" : 5126,
            "count" : 756,
            "type" : "VEC3"
        },
        {
            "bufferView" : 2,
            "componentType" : 5126,
            "count" : 756,
            "type" : "VEC2"
        },
        {
            "bufferView" : 3,
            "componentType" : 5123,
            "count" : 1728,
            "type" : "SCALAR"
        },
        {
            "bufferView" : 4,
            "componentType" : 5126,
            "count" : 84,
            "max" : [
                0.31455641984939575,
                0.05732831731438637,
                0.4246198534965515
            ],
            "min" : [
                -0.3113422989845276,
                -0.05932530388236046,
                -0.4246198534965515
            ],
            "type" : "VEC3"
        },
        {
            "bufferView" : 5,
            "componentType" : 5126,
            "count" : 84,
            "type" : "VEC3"
        },
        {
            "bufferView" : 6,
            "componentType" : 5126,
            "count" : 84,
            "type" : "VEC2"
        },
        {
            "bufferView" : 7,
            "componentType" : 5123,
            "count" : 324,
            "type" : "SCALAR"
        },
        {
            "bufferView" : 8,
            "componentType" : 5126,
            "count" : 84,
            "max" : [
                -0.3228650391101837,
                0.05809115245938301,
                -0.00863037258386612
            ],
            "min" : [
                -0.330539733171463,
                -0.06007834151387215,
                -0.3805304765701294
            ],
            "type" : "VEC3"
        },
        {
            "bufferView" : 9,
            "componentType" : 5126,
            "count" : 84,
            "type" : "VEC3"
        },
        {
            "bufferView" : 10,
            "componentType" : 5126,
            "count" : 84,
            "type" : "VEC2"
        },
        {
            "bufferView" : 11,
            "componentType" : 5123,
            "count" : 216,
            "type" : "SCALAR"
        }
    ],
    "bufferViews" : [
        {
            "buffer" : 0,
            "byteLength" : 9072,
            "byteOffset" : 0
        },
        {
            "buffer" : 0,
            "byteLength" : 9072,
            "byteOffset" : 9072
        },
        {
            "buffer" : 0,
            "byteLength" : 6048,
            "byteOffset" : 18144
        },
        {
            "buffer" : 0,
            "byteLength" : 3456,
            "byteOffset" : 24192
        },
        {
            "buffer" : 0,
            "byteLength" : 1008,
            "byteOffset" : 27648
        },
        {
            "buffer" : 0,
            "byteLength" : 1008,
            "byteOffset" : 28656
        },
        {
            "buffer" : 0,
            "byteLength" : 672,
            "byteOffset" : 29664
        },
        {
            "buffer" : 0,
            "byteLength" : 648,
            "byteOffset" : 30336
        },
        {
            "buffer" : 0,
            "byteLength" : 1008,
            "byteOffset" : 30984
        },
        {
            "buffer" : 0,
            "byteLength" : 1008,
            "byteOffset" : 31992
        },
        {
            "buffer" : 0,
            "byteLength" : 672,
            "byteOffset" : 33000
        },
        {
            "buffer" : 0,
            "byteLength" : 432,
            "byteOffset" : 33672
        }
    ],
    "buffers" : [
        {
            "byteLength" : 34104,
            "uri" : "data:application/octet-stream;base64,"
        }
    ]
}
